<?xml version="1.0" standalone="no"?>
<!DOCTYPE svg PUBLIC "-//W3C//DTD SVG 20010904//EN"
 "http://www.w3.org/TR/2001/REC-SVG-20010904/DTD/svg10.dtd">
<svg version="1.0" xmlns="http://www.w3.org/2000/svg"
 width="500.000000pt" height="500.000000pt" viewBox="0 0 500.000000 500.000000"
 preserveAspectRatio="xMidYMid meet">

<g transform="translate(0.000000,500.000000) scale(0.100000,-0.100000)"
fill="#000000" stroke="none">
<path d="M1982 4060 c-30 -13 -42 -48 -42 -126 l0 -64 -64 0 c-58 0 -67 -3
-85 -26 -21 -26 -21 -37 -21 -454 0 -417 0 -428 21 -454 l20 -26 260 0 259 0
0 -55 0 -55 -64 0 c-58 0 -67 -3 -85 -26 -24 -30 -30 -131 -9 -152 9 -9 96
-12 329 -12 269 0 318 2 329 15 19 22 8 129 -15 155 -15 16 -30 20 -82 20
l-63 0 0 55 0 55 258 0 c250 0 260 1 278 21 18 20 19 42 19 460 0 508 8 471
-103 479 l-67 5 -3 77 c-5 127 39 118 -551 117 -273 0 -506 -4 -519 -9z m1012
-36 c12 -4 16 -20 16 -55 l0 -49 -515 0 -515 0 0 39 c0 75 -26 71 515 71 266
0 490 -3 499 -6z m16 -448 c0 -268 -2 -305 -16 -310 -9 -3 -233 -6 -499 -6
-426 0 -485 2 -499 16 -14 13 -16 56 -16 310 l0 294 515 0 515 0 0 -304z
m-1070 240 c0 -10 -14 -16 -42 -18 l-43 -3 -3 -332 -2 -333 650 0 650 0 -2
333 -3 332 -47 3 c-35 2 -48 7 -48 18 0 12 12 14 63 12 l62 -3 3 -368 2 -367
-682 2 -683 3 -3 354 c-2 253 1 358 9 367 16 20 119 19 119 0z m0 -291 c0
-248 4 -275 47 -294 16 -8 176 -11 514 -11 466 0 511 2 539 27 3 3 7 118 10
256 l5 252 28 3 27 3 0 -295 0 -296 -610 0 -610 0 0 295 0 295 25 0 25 0 0
-235z m1240 -525 l0 -50 -679 0 c-752 0 -691 -6 -691 66 l0 34 685 0 685 0 0
-50z m-555 -145 l0 -50 -127 -3 -128 -3 0 49 c0 27 3 52 7 56 4 3 61 5 127 4
l121 -3 0 -50z m165 -114 c5 -11 10 -33 10 -50 l0 -31 -300 0 -300 0 0 34 c0
70 -18 66 296 66 270 0 284 -1 294 -19z"/>
<path d="M2040 3970 c0 -13 7 -20 20 -20 13 0 20 7 20 20 0 13 -7 20 -20 20
-13 0 -20 -7 -20 -20z"/>
<path d="M2140 3970 c0 -13 7 -20 20 -20 13 0 20 7 20 20 0 13 -7 20 -20 20
-13 0 -20 -7 -20 -20z"/>
<path d="M2240 3970 c0 -13 7 -20 20 -20 13 0 20 7 20 20 0 13 -7 20 -20 20
-13 0 -20 -7 -20 -20z"/>
<path d="M2142 3803 c4 -24 83 -27 83 -3 0 11 -13 16 -43 18 -38 3 -43 1 -40
-15z"/>
<path d="M2262 3803 c2 -12 12 -18 28 -18 16 0 26 6 28 18 3 13 -3 17 -28 17
-25 0 -31 -4 -28 -17z"/>
<path d="M2190 3730 c0 -19 7 -20 90 -20 83 0 90 1 90 20 0 19 -7 20 -90 20
-83 0 -90 -1 -90 -20z"/>
<path d="M2435 3740 c-12 -19 10 -32 46 -28 48 4 46 32 -3 36 -20 2 -39 -2
-43 -8z"/>
<path d="M2197 3674 c-4 -4 -7 -13 -7 -21 0 -10 22 -13 91 -13 81 0 90 2 87
18 -3 14 -16 17 -84 20 -44 1 -83 0 -87 -4z"/>
<path d="M2437 3674 c-4 -4 -7 -13 -7 -21 0 -10 34 -13 166 -13 152 0 165 1
162 18 -3 15 -20 17 -159 20 -85 1 -158 -1 -162 -4z"/>
<path d="M2192 3583 c3 -16 15 -18 88 -18 73 0 85 2 88 18 3 15 -6 17 -88 17
-82 0 -91 -2 -88 -17z"/>
<path d="M2430 3586 c0 -23 24 -26 215 -26 191 0 215 3 215 26 0 12 -38 14
-215 14 -177 0 -215 -2 -215 -14z"/>
<path d="M2153 3503 c-7 -2 -13 -11 -13 -19 0 -10 12 -14 38 -14 45 0 56 8 41
27 -11 13 -42 16 -66 6z"/>
<path d="M2273 3503 c-26 -10 -13 -33 18 -33 24 0 30 4 27 17 -3 18 -24 26
-45 16z"/>
<path d="M2190 3416 c0 -20 16 -29 40 -21 32 10 25 35 -10 35 -19 0 -30 -5
-30 -14z"/>
<path d="M2310 3415 c0 -21 32 -26 135 -23 76 3 90 6 93 21 3 15 -7 17 -112
17 -96 0 -116 -3 -116 -15z"/>
<path d="M2604 3419 c-12 -19 18 -29 92 -29 48 0 75 4 83 13 6 8 8 17 4 20
-11 12 -171 8 -179 -4z"/>
<path d="M2190 3340 c0 -17 5 -21 28 -18 16 2 27 9 27 18 0 9 -11 16 -27 18
-23 3 -28 -1 -28 -18z"/>
<path d="M2315 3350 c-14 -23 11 -30 116 -30 102 0 109 1 109 20 0 19 -7 20
-109 20 -63 0 -112 -4 -116 -10z"/>
<path d="M2605 3350 c-12 -19 10 -32 46 -28 48 4 46 32 -3 36 -20 2 -39 -2
-43 -8z"/>
<path d="M2995 3010 c-12 -19 10 -32 46 -28 48 4 46 32 -3 36 -20 2 -39 -2
-43 -8z"/>
<path d="M2397 2393 c-4 -3 -7 -19 -7 -35 0 -27 2 -28 50 -28 l50 0 0 35 c0
35 0 35 -43 35 -24 0 -47 -3 -50 -7z"/>
<path d="M3410 2365 l0 -35 50 0 50 0 0 35 0 35 -50 0 -50 0 0 -35z"/>
<path d="M3910 2215 l0 -185 50 0 c48 0 50 1 50 28 0 16 8 37 19 46 18 16 20
15 45 -29 27 -45 27 -45 81 -45 30 0 55 3 55 6 0 3 -20 37 -45 75 -25 38 -45
72 -45 75 0 3 20 29 45 57 l45 52 -52 3 c-53 4 -53 3 -100 -49 l-48 -53 0 102
0 102 -50 0 -50 0 0 -185z"/>
<path d="M820 2205 l0 -175 55 0 55 0 0 65 c0 58 2 65 20 65 15 0 29 -17 52
-65 l32 -65 64 0 63 0 -37 71 c-38 71 -38 71 -17 88 44 34 56 98 27 139 -30
43 -65 52 -194 52 l-120 0 0 -175z m209 81 c25 -30 -15 -62 -70 -54 -19 2 -25
10 -27 36 -3 32 -3 32 41 32 26 0 49 -6 56 -14z"/>
<path d="M3070 2205 l0 -175 145 0 145 0 0 45 0 45 -90 0 -90 0 0 130 0 130
-55 0 -55 0 0 -175z"/>
<path d="M1262 2283 c-42 -20 -62 -59 -62 -118 0 -53 21 -99 52 -116 70 -37
171 -27 212 21 51 62 40 165 -23 207 -41 28 -129 31 -179 6z m132 -96 c17 -65
-20 -111 -70 -89 -21 10 -24 18 -24 67 0 49 3 57 23 64 35 13 61 -2 71 -42z"/>
<path d="M1593 2280 c-42 -25 -56 -53 -57 -117 -1 -88 51 -136 149 -136 95 0
145 48 145 138 0 60 -21 98 -64 119 -48 22 -133 21 -173 -4z m135 -114 c3 -51
1 -57 -22 -67 -49 -23 -84 20 -72 86 8 39 36 58 71 45 16 -6 21 -18 23 -64z"/>
<path d="M1880 2165 l0 -135 50 0 50 0 0 84 c0 64 4 88 16 100 42 42 64 6 64
-103 l0 -81 50 0 50 0 0 89 c0 69 4 92 16 102 11 9 20 10 32 2 14 -8 18 -29
20 -102 l3 -91 49 0 50 0 0 100 c0 105 -13 151 -45 164 -31 11 -80 6 -110 -12
-28 -17 -30 -17 -47 0 -25 25 -98 24 -131 -2 -25 -20 -25 -20 -30 0 -4 16 -14
20 -46 20 l-41 0 0 -135z"/>
<path d="M2397 2293 c-4 -3 -7 -64 -7 -135 l0 -128 50 0 50 0 0 135 0 135 -43
0 c-24 0 -47 -3 -50 -7z"/>
<path d="M2612 2283 c-18 -9 -40 -29 -48 -44 -16 -32 -19 -106 -4 -143 37 -98
266 -90 282 9 3 17 -3 20 -41 23 -35 3 -46 -1 -58 -17 -26 -38 -93 -22 -93 21
0 16 10 18 101 18 l101 0 -7 37 c-10 52 -21 71 -58 93 -40 25 -129 26 -175 3z
m116 -55 c25 -25 13 -38 -33 -38 -33 0 -45 4 -45 15 0 29 56 45 78 23z"/>
<path d="M3410 2165 l0 -135 50 0 50 0 0 135 0 135 -50 0 -50 0 0 -135z"/>
<path d="M3570 2165 l0 -135 50 0 49 0 3 91 c2 75 6 94 21 103 12 8 22 8 35 0
14 -9 18 -28 20 -103 l3 -91 49 0 50 0 0 94 c0 101 -12 151 -40 166 -32 17
-95 12 -123 -10 l-26 -20 -6 20 c-5 16 -15 20 -46 20 l-39 0 0 -135z"/>
<path d="M406 1847 c3 -10 9 -15 12 -12 3 3 0 11 -7 18 -10 9 -11 8 -5 -6z"/>
<path d="M1447 1841 c-4 -17 -3 -21 5 -13 5 5 8 16 6 23 -3 8 -7 3 -11 -10z"/>
<path d="M2101 1844 c0 -11 3 -14 6 -6 3 7 2 16 -1 19 -3 4 -6 -2 -5 -13z"/>
<path d="M2662 1840 c0 -14 2 -19 5 -12 2 6 2 18 0 25 -3 6 -5 1 -5 -13z"/>
<path d="M3145 1819 c-1 -22 2 -33 7 -26 10 15 10 54 1 60 -5 3 -8 -12 -8 -34z"/>
<path d="M981 1834 c0 -11 3 -14 6 -6 3 7 2 16 -1 19 -3 4 -6 -2 -5 -13z"/>
<path d="M1211 1834 c0 -11 3 -14 6 -6 3 7 2 16 -1 19 -3 4 -6 -2 -5 -13z"/>
<path d="M1750 1843 c0 -6 -10 -9 -22 -7 -21 4 -21 4 -3 -5 20 -9 45 3 32 16
-4 3 -7 2 -7 -4z"/>
<path d="M2530 1843 c0 -6 -10 -9 -22 -7 -21 4 -21 4 -3 -5 20 -9 45 3 32 16
-4 3 -7 2 -7 -4z"/>
<path d="M462 1828 c-17 -17 -15 -48 4 -55 8 -3 20 -1 26 5 8 8 5 9 -11 5 -16
-4 -21 -1 -21 14 0 10 5 24 12 31 7 7 10 12 7 12 -3 0 -10 -5 -17 -12z"/>
<path d="M497 1819 c4 -13 8 -18 11 -10 2 7 -1 18 -6 23 -8 8 -9 4 -5 -13z"/>
<path d="M588 1813 c5 -21 7 -23 10 -9 2 10 0 22 -6 28 -6 6 -7 0 -4 -19z"/>
<path d="M856 1833 c5 -5 12 -12 16 -18 4 -6 8 -2 8 8 0 9 -7 17 -17 17 -9 0
-12 -3 -7 -7z"/>
<path d="M1501 1824 c0 -11 3 -14 6 -6 3 7 2 16 -1 19 -3 4 -6 -2 -5 -13z"/>
<path d="M1896 1827 c3 -10 9 -15 12 -12 3 3 0 11 -7 18 -10 9 -11 8 -5 -6z"/>
<path d="M2426 1827 c3 -10 9 -15 12 -12 3 3 0 11 -7 18 -10 9 -11 8 -5 -6z"/>
<path d="M2696 1827 c3 -10 9 -15 12 -12 3 3 0 11 -7 18 -10 9 -11 8 -5 -6z"/>
<path d="M2847 1819 c4 -13 8 -18 11 -10 2 7 -1 18 -6 23 -8 8 -9 4 -5 -13z"/>
<path d="M2904 1829 c-3 -6 2 -18 12 -27 17 -16 17 -16 5 0 -7 9 -10 22 -6 28
3 5 4 10 1 10 -3 0 -8 -5 -12 -11z"/>
<path d="M3440 1828 c0 -19 34 -25 45 -8 4 6 -1 7 -10 3 -10 -3 -21 0 -26 8
-7 11 -9 11 -9 -3z"/>
<path d="M3535 1829 c-4 -6 -4 -13 -1 -16 3 -4 6 -1 6 5 0 6 8 13 18 15 15 4
15 5 0 6 -9 0 -20 -4 -23 -10z"/>
<path d="M3632 1828 c-17 -17 -15 -48 4 -55 8 -3 20 -1 26 5 8 8 5 9 -11 5
-16 -4 -21 -1 -21 14 0 10 5 24 12 31 7 7 10 12 7 12 -3 0 -10 -5 -17 -12z"/>
<path d="M3667 1819 c4 -13 8 -18 11 -10 2 7 -1 18 -6 23 -8 8 -9 4 -5 -13z"/>
<path d="M3920 1836 c0 -7 40 -14 44 -7 3 4 -6 8 -20 9 -13 1 -24 0 -24 -2z"/>
<path d="M360 1813 c0 -8 5 -11 11 -7 6 3 15 0 20 -7 7 -11 9 -11 9 2 0 9 -9
19 -20 22 -13 3 -20 0 -20 -10z"/>
<path d="M1401 1814 c0 -11 3 -14 6 -6 3 7 2 16 -1 19 -3 4 -6 -2 -5 -13z"/>
<path d="M3081 1815 c-1 -25 17 -45 39 -44 10 0 9 3 -5 8 -11 4 -23 19 -26 32
-6 21 -7 21 -8 4z"/>
<path d="M3205 1819 c-4 -6 -5 -12 -2 -15 2 -3 7 2 10 11 7 17 1 20 -8 4z"/>
<path d="M3725 1819 c-4 -6 -5 -12 -2 -15 2 -3 7 2 10 11 7 17 1 20 -8 4z"/>
<path d="M4291 1814 c0 -11 3 -14 6 -6 3 7 2 16 -1 19 -3 4 -6 -2 -5 -13z"/>
<path d="M832 1799 c2 -15 10 -25 23 -26 17 -2 17 -1 2 3 -11 3 -16 12 -13 20
3 7 0 16 -5 20 -7 4 -9 -3 -7 -17z"/>
<path d="M1151 1804 c0 -11 3 -14 6 -6 3 7 2 16 -1 19 -3 4 -6 -2 -5 -13z"/>
<path d="M1537 1801 c-4 -17 -3 -21 5 -13 5 5 8 16 6 23 -3 8 -7 3 -11 -10z"/>
<path d="M2097 1813 c-4 -3 -7 -11 -7 -17 0 -7 3 -7 8 0 4 7 16 14 27 17 19 5
19 5 -1 6 -11 0 -24 -2 -27 -6z"/>
<path d="M2590 1808 c14 -17 12 -26 -7 -31 -16 -4 -16 -5 -1 -6 25 -2 33 19
14 35 -9 8 -11 9 -6 2z"/>
<path d="M4123 1801 c1 -14 9 -26 17 -28 10 -3 11 -2 4 4 -7 4 -14 17 -17 28
-5 16 -5 15 -4 -4z"/>
<path d="M641 1794 c0 -11 3 -14 6 -6 3 7 2 16 -1 19 -3 4 -6 -2 -5 -13z"/>
<path d="M1204 1795 c-4 -9 -4 -19 0 -22 3 -4 6 1 6 10 0 19 15 23 23 7 3 -6
4 -5 3 2 -4 19 -25 21 -32 3z"/>
<path d="M1736 1795 c-3 -8 -1 -15 4 -15 6 0 10 7 10 15 0 8 -2 15 -4 15 -2 0
-6 -7 -10 -15z"/>
<path d="M1851 1794 c0 -11 3 -14 6 -6 3 7 2 16 -1 19 -3 4 -6 -2 -5 -13z"/>
<path d="M2171 1794 c0 -11 3 -14 6 -6 3 7 2 16 -1 19 -3 4 -6 -2 -5 -13z"/>
<path d="M2295 1800 c-3 -6 1 -7 9 -4 18 7 21 14 7 14 -6 0 -13 -4 -16 -10z"/>
<path d="M2381 1794 c0 -11 3 -14 6 -6 3 7 2 16 -1 19 -3 4 -6 -2 -5 -13z"/>
<path d="M2516 1795 c-3 -8 -1 -15 4 -15 6 0 10 7 10 15 0 8 -2 15 -4 15 -2 0
-6 -7 -10 -15z"/>
<path d="M2651 1794 c0 -11 3 -14 6 -6 3 7 2 16 -1 19 -3 4 -6 -2 -5 -13z"/>
<path d="M2801 1794 c0 -11 3 -14 6 -6 3 7 2 16 -1 19 -3 4 -6 -2 -5 -13z"/>
<path d="M3292 1793 c2 -10 12 -19 23 -20 17 -2 17 -1 2 3 -11 4 -16 12 -13
20 3 8 1 14 -5 14 -6 0 -9 -8 -7 -17z"/>
<path d="M3801 1794 c0 -11 3 -14 6 -6 3 7 2 16 -1 19 -3 4 -6 -2 -5 -13z"/>
<path d="M3946 1795 c-3 -8 -1 -15 4 -15 6 0 10 7 10 15 0 8 -2 15 -4 15 -2 0
-6 -7 -10 -15z"/>
<path d="M4411 1794 c0 -11 3 -14 6 -6 3 7 2 16 -1 19 -3 4 -6 -2 -5 -13z"/>
<path d="M4545 1800 c-3 -6 1 -7 9 -4 18 7 21 14 7 14 -6 0 -13 -4 -16 -10z"/>
<path d="M721 1784 c0 -11 3 -14 6 -6 3 7 2 16 -1 19 -3 4 -6 -2 -5 -13z"/>
<path d="M970 1788 c0 -12 7 -18 23 -17 15 0 17 2 7 6 -8 3 -18 11 -22 17 -5
7 -8 4 -8 -6z"/>
<path d="M1051 1784 c0 -11 3 -14 6 -6 3 7 2 16 -1 19 -3 4 -6 -2 -5 -13z"/>
<path d="M1591 1784 c0 -11 3 -14 6 -6 3 7 2 16 -1 19 -3 4 -6 -2 -5 -13z"/>
<path d="M2241 1784 c0 -11 3 -14 6 -6 3 7 2 16 -1 19 -3 4 -6 -2 -5 -13z"/>
<path d="M4000 1791 c0 -6 4 -13 10 -16 6 -3 7 1 4 9 -7 18 -14 21 -14 7z"/>
<path d="M4161 1784 c0 -11 3 -14 6 -6 3 7 2 16 -1 19 -3 4 -6 -2 -5 -13z"/>
<path d="M4491 1784 c0 -11 3 -14 6 -6 3 7 2 16 -1 19 -3 4 -6 -2 -5 -13z"/>
<path d="M1415 1780 l-30 -8 27 -1 c15 0 30 4 33 9 3 6 5 9 3 9 -2 -1 -16 -5
-33 -9z"/>
<path d="M2830 1780 c-9 -6 -10 -10 -3 -10 6 0 15 5 18 10 8 12 4 12 -15 0z"/>
<path d="M3537 1779 c7 -7 15 -10 18 -7 3 3 -2 9 -12 12 -14 6 -15 5 -6 -5z"/>
<path d="M558 1773 c7 -3 16 -2 19 1 4 3 -2 6 -13 5 -11 0 -14 -3 -6 -6z"/>
<path d="M1970 1771 c13 -10 13 -12 0 -22 -13 -9 -13 -10 0 -6 8 2 15 10 15
17 0 7 -7 15 -15 17 -13 4 -13 3 0 -6z"/>
<path d="M2308 1773 c7 -3 16 -2 19 1 4 3 -2 6 -13 5 -11 0 -14 -3 -6 -6z"/>
<path d="M2898 1773 c7 -3 16 -2 19 1 4 3 -2 6 -13 5 -11 0 -14 -3 -6 -6z"/>
<path d="M4558 1773 c7 -3 16 -2 19 1 4 3 -2 6 -13 5 -11 0 -14 -3 -6 -6z"/>
<path d="M1930 1761 c0 -6 4 -13 10 -16 6 -3 7 1 4 9 -7 18 -14 21 -14 7z"/>
</g>
</svg>
